<svg width="324" height="20" viewBox="0 0 324 20" fill="none" xmlns="http://www.w3.org/2000/svg">
<path d="M7.55547 15.2C6.19547 15.2 5.00214 14.9 3.97547 14.3C2.9488 13.7 2.1488 12.8867 1.57547 11.86C1.00214 10.8333 0.715469 9.68 0.715469 8.4C0.715469 7.10667 1.00214 5.95333 1.57547 4.94C2.1488 3.91333 2.9488 3.1 3.97547 2.5C5.00214 1.9 6.19547 1.6 7.55547 1.6C8.91547 1.6 10.1088 1.9 11.1355 2.5C12.1621 3.1 12.9621 3.91333 13.5355 4.94C14.1088 5.95333 14.3955 7.10667 14.3955 8.4C14.3955 9.68 14.1088 10.8333 13.5355 11.86C12.9621 12.8867 12.1621 13.7 11.1355 14.3C10.1088 14.9 8.91547 15.2 7.55547 15.2ZM7.55547 13.9C8.63547 13.9 9.58214 13.66 10.3955 13.18C11.2088 12.6867 11.8421 12.0267 12.2955 11.2C12.7488 10.36 12.9755 9.42667 12.9755 8.4C12.9755 7.37333 12.7488 6.44667 12.2955 5.62C11.8421 4.78 11.2088 4.12 10.3955 3.64C9.58214 3.14667 8.63547 2.9 7.55547 2.9C6.4888 2.9 5.54214 3.14667 4.71547 3.64C3.90214 4.12 3.2688 4.78 2.81547 5.62C2.36214 6.44667 2.13547 7.37333 2.13547 8.4C2.13547 9.42667 2.36214 10.36 2.81547 11.2C3.2688 12.0267 3.90214 12.6867 4.71547 13.18C5.54214 13.66 6.4888 13.9 7.55547 13.9ZM7.69547 12.14C6.56214 12.14 5.6688 11.8133 5.01547 11.16C4.37547 10.4933 4.05547 9.58667 4.05547 8.44C4.05547 7.29333 4.37547 6.39333 5.01547 5.74C5.6688 5.07333 6.56214 4.74 7.69547 4.74C8.48214 4.74 9.13547 4.91333 9.65547 5.26C10.1755 5.59333 10.5621 6.05333 10.8155 6.64L9.65547 7.22C9.48214 6.79333 9.23547 6.47333 8.91547 6.26C8.59547 6.04667 8.18214 5.94 7.67547 5.94C6.9688 5.94 6.4088 6.16 5.99547 6.6C5.59547 7.04 5.39547 7.65333 5.39547 8.44C5.39547 9.22667 5.59547 9.84 5.99547 10.28C6.4088 10.72 6.9688 10.94 7.67547 10.94C8.2088 10.94 8.6488 10.8333 8.99547 10.62C9.35547 10.3933 9.62214 10.0533 9.79547 9.6L10.8955 10.04C10.6421 10.6933 10.2488 11.2067 9.71547 11.58C9.18214 11.9533 8.5088 12.14 7.69547 12.14ZM28.9781 1.6C30.1381 1.6 31.1381 1.84 31.9781 2.32C32.8181 2.78667 33.5181 3.48 34.0781 4.4L32.7381 5.44C32.2448 4.58667 31.6848 3.98667 31.0581 3.64C30.4448 3.28 29.6981 3.1 28.8181 3.1C28.1115 3.1 27.5248 3.2 27.0581 3.4C26.6048 3.6 26.2715 3.86667 26.0581 4.2C25.8448 4.52 25.7381 4.88667 25.7381 5.3C25.7381 5.76667 25.8848 6.18 26.1781 6.54C26.4715 6.88667 27.0581 7.16 27.9381 7.36L30.7981 8C32.0648 8.28 32.9448 8.70667 33.4381 9.28C33.9448 9.84 34.1981 10.54 34.1981 11.38C34.1981 12.1267 33.9848 12.7933 33.5581 13.38C33.1448 13.9533 32.5581 14.4 31.7981 14.72C31.0381 15.04 30.1448 15.2 29.1181 15.2C28.1581 15.2 27.3115 15.0733 26.5781 14.82C25.8581 14.5533 25.2381 14.2 24.7181 13.76C24.1981 13.32 23.7715 12.8267 23.4381 12.28L24.8381 11.14C25.0915 11.6467 25.4181 12.0933 25.8181 12.48C26.2181 12.8667 26.6981 13.1667 27.2581 13.38C27.8315 13.5933 28.4848 13.7 29.2181 13.7C29.8981 13.7 30.4848 13.62 30.9781 13.46C31.4848 13.2867 31.8715 13.04 32.1381 12.72C32.4048 12.3867 32.5381 11.9867 32.5381 11.52C32.5381 11.0933 32.3981 10.7133 32.1181 10.38C31.8381 10.0333 31.3115 9.77333 30.5381 9.6L27.4381 8.9C26.6248 8.71333 25.9648 8.46 25.4581 8.14C24.9648 7.80667 24.6048 7.42 24.3781 6.98C24.1648 6.52667 24.0581 6.04 24.0581 5.52C24.0581 4.81333 24.2515 4.16667 24.6381 3.58C25.0381 2.98 25.6048 2.5 26.3381 2.14C27.0848 1.78 27.9648 1.6 28.9781 1.6ZM39.6106 2.16V12.24C39.6106 12.7333 39.7506 13.1 40.0306 13.34C40.3106 13.58 40.6706 13.7 41.1106 13.7C41.4973 13.7 41.8306 13.6333 42.1106 13.5C42.3906 13.3667 42.644 13.1867 42.8706 12.96L43.4306 14.3C43.124 14.58 42.7573 14.8 42.3306 14.96C41.9173 15.12 41.4373 15.2 40.8906 15.2C40.384 15.2 39.9106 15.1133 39.4706 14.94C39.0306 14.7533 38.6773 14.4667 38.4106 14.08C38.1573 13.68 38.024 13.16 38.0106 12.52V2.6L39.6106 2.16ZM43.2506 5V6.38H36.0106V5H43.2506ZM51.4695 8.54C51.4695 7.79333 51.2695 7.22 50.8695 6.82C50.4695 6.40667 49.9029 6.2 49.1695 6.2C48.4762 6.2 47.8895 6.35333 47.4095 6.66C46.9295 6.95333 46.5762 7.43333 46.3495 8.1L45.0495 7.3C45.3162 6.55333 45.8095 5.95333 46.5295 5.5C47.2495 5.03333 48.1429 4.8 49.2095 4.8C49.9295 4.8 50.5829 4.92667 51.1695 5.18C51.7562 5.42 52.2162 5.79333 52.5495 6.3C52.8962 6.79333 53.0695 7.43333 53.0695 8.22V13.06C53.0695 13.54 53.3229 13.78 53.8295 13.78C54.0829 13.78 54.3295 13.7467 54.5695 13.68L54.4895 14.94C54.2229 15.0733 53.8762 15.14 53.4495 15.14C53.0629 15.14 52.7162 15.0667 52.4095 14.92C52.1029 14.7733 51.8629 14.5533 51.6895 14.26C51.5162 13.9533 51.4295 13.5733 51.4295 13.12V12.92L51.8295 12.98C51.6695 13.5 51.3962 13.9267 51.0095 14.26C50.6229 14.58 50.1895 14.82 49.7095 14.98C49.2295 15.1267 48.7562 15.2 48.2895 15.2C47.7029 15.2 47.1562 15.1 46.6495 14.9C46.1429 14.7 45.7362 14.4 45.4295 14C45.1362 13.5867 44.9895 13.08 44.9895 12.48C44.9895 11.7333 45.2362 11.12 45.7295 10.64C46.2362 10.1467 46.9362 9.81333 47.8295 9.64L51.7895 8.86V10.18L48.5695 10.84C47.9162 10.9733 47.4295 11.16 47.1095 11.4C46.7895 11.64 46.6295 11.9733 46.6295 12.4C46.6295 12.8133 46.7895 13.1533 47.1095 13.42C47.4429 13.6733 47.9095 13.8 48.5095 13.8C48.8962 13.8 49.2629 13.7533 49.6095 13.66C49.9695 13.5533 50.2895 13.4 50.5695 13.2C50.8495 12.9867 51.0695 12.7267 51.2295 12.42C51.3895 12.1 51.4695 11.7267 51.4695 11.3V8.54ZM56.9577 15V5H58.2577L58.4777 6.64C58.7577 6.02667 59.1643 5.56667 59.6977 5.26C60.2443 4.95333 60.9043 4.8 61.6777 4.8C61.851 4.8 62.0377 4.81333 62.2377 4.84C62.451 4.86667 62.631 4.92 62.7777 5L62.4977 6.46C62.351 6.40667 62.191 6.36667 62.0177 6.34C61.8443 6.31333 61.5977 6.3 61.2777 6.3C60.8643 6.3 60.4443 6.42 60.0177 6.66C59.6043 6.9 59.2577 7.26667 58.9777 7.76C58.6977 8.24 58.5577 8.85333 58.5577 9.6V15H56.9577ZM66.8763 2.16V12.24C66.8763 12.7333 67.0163 13.1 67.2963 13.34C67.5763 13.58 67.9363 13.7 68.3763 13.7C68.7629 13.7 69.0963 13.6333 69.3763 13.5C69.6563 13.3667 69.9096 13.1867 70.1363 12.96L70.6963 14.3C70.3896 14.58 70.0229 14.8 69.5963 14.96C69.1829 15.12 68.7029 15.2 68.1563 15.2C67.6496 15.2 67.1763 15.1133 66.7363 14.94C66.2963 14.7533 65.9429 14.4667 65.6763 14.08C65.4229 13.68 65.2896 13.16 65.2763 12.52V2.6L66.8763 2.16ZM70.5163 5V6.38H63.2763V5H70.5163ZM73.6952 12.6C74.0152 12.6 74.2818 12.6867 74.4952 12.86C74.7218 13.02 74.8952 13.2467 75.0152 13.54C75.1352 13.82 75.1952 14.1533 75.1952 14.54C75.1952 14.98 75.1152 15.4133 74.9552 15.84C74.8085 16.2667 74.5752 16.66 74.2552 17.02C73.9352 17.38 73.5218 17.68 73.0152 17.92L72.1752 17.14C72.5352 17.02 72.8485 16.8533 73.1152 16.64C73.3952 16.4267 73.6218 16.1867 73.7952 15.92C73.9685 15.6533 74.0818 15.38 74.1352 15.1L74.0552 15.06C74.0018 15.1 73.9352 15.1333 73.8552 15.16C73.7752 15.1867 73.6552 15.2 73.4952 15.2C73.3352 15.2 73.1685 15.1533 72.9952 15.06C72.8352 14.9667 72.6952 14.8333 72.5752 14.66C72.4552 14.4733 72.3952 14.2333 72.3952 13.94C72.3952 13.7 72.4552 13.48 72.5752 13.28C72.6952 13.0667 72.8485 12.9 73.0352 12.78C73.2352 12.66 73.4552 12.6 73.6952 12.6ZM84.6441 15V13.7C85.9641 12.7267 87.0641 11.8733 87.9441 11.14C88.8374 10.4067 89.5507 9.74 90.0841 9.14C90.6174 8.54 90.9974 7.97333 91.2241 7.44C91.4507 6.89333 91.5641 6.32667 91.5641 5.74C91.5641 4.95333 91.3107 4.32 90.8041 3.84C90.3107 3.34667 89.6307 3.1 88.7641 3.1C87.8574 3.1 87.1307 3.4 86.5841 4C86.0374 4.58667 85.7174 5.37333 85.6241 6.36L84.2241 5.52C84.3441 4.74667 84.5907 4.06667 84.9641 3.48C85.3507 2.89333 85.8641 2.43333 86.5041 2.1C87.1574 1.76667 87.9307 1.6 88.8241 1.6C89.5041 1.6 90.1107 1.7 90.6441 1.9C91.1907 2.1 91.6574 2.38667 92.0441 2.76C92.4307 3.12 92.7241 3.55333 92.9241 4.06C93.1374 4.56667 93.2441 5.12667 93.2441 5.74C93.2441 6.56667 93.0441 7.38 92.6441 8.18C92.2441 8.96667 91.5841 9.79333 90.6641 10.66C89.7441 11.5267 88.4974 12.4867 86.9241 13.54V13.56C87.0707 13.5467 87.2707 13.54 87.5241 13.54C87.7907 13.5267 88.0507 13.52 88.3041 13.52C88.5707 13.5067 88.7707 13.5 88.9041 13.5H93.5241V15H84.6441ZM101.044 15.2C99.5509 15.2 98.3576 14.62 97.4642 13.46C96.5709 12.3 96.1242 10.6133 96.1242 8.4C96.1242 6.18667 96.5709 4.5 97.4642 3.34C98.3576 2.18 99.5509 1.6 101.044 1.6C102.551 1.6 103.744 2.18 104.624 3.34C105.518 4.5 105.964 6.18667 105.964 8.4C105.964 10.6133 105.518 12.3 104.624 13.46C103.744 14.62 102.551 15.2 101.044 15.2ZM101.044 13.76C101.751 13.76 102.344 13.56 102.824 13.16C103.318 12.7467 103.684 12.14 103.924 11.34C104.178 10.54 104.304 9.56 104.304 8.4C104.304 7.24 104.178 6.26 103.924 5.46C103.684 4.66 103.318 4.06 102.824 3.66C102.344 3.24667 101.751 3.04 101.044 3.04C100.338 3.04 99.7376 3.24667 99.2442 3.66C98.7642 4.06 98.3976 4.66 98.1442 5.46C97.9042 6.26 97.7842 7.24 97.7842 8.4C97.7842 9.56 97.9042 10.54 98.1442 11.34C98.3976 12.14 98.7642 12.7467 99.2442 13.16C99.7376 13.56 100.338 13.76 101.044 13.76ZM108.746 15V13.7C110.066 12.7267 111.166 11.8733 112.046 11.14C112.939 10.4067 113.652 9.74 114.186 9.14C114.719 8.54 115.099 7.97333 115.326 7.44C115.552 6.89333 115.666 6.32667 115.666 5.74C115.666 4.95333 115.412 4.32 114.906 3.84C114.412 3.34667 113.732 3.1 112.866 3.1C111.959 3.1 111.232 3.4 110.686 4C110.139 4.58667 109.819 5.37333 109.726 6.36L108.326 5.52C108.446 4.74667 108.692 4.06667 109.066 3.48C109.452 2.89333 109.966 2.43333 110.606 2.1C111.259 1.76667 112.032 1.6 112.926 1.6C113.606 1.6 114.212 1.7 114.746 1.9C115.292 2.1 115.759 2.38667 116.146 2.76C116.532 3.12 116.826 3.55333 117.026 4.06C117.239 4.56667 117.346 5.12667 117.346 5.74C117.346 6.56667 117.146 7.38 116.746 8.18C116.346 8.96667 115.686 9.79333 114.766 10.66C113.846 11.5267 112.599 12.4867 111.026 13.54V13.56C111.172 13.5467 111.372 13.54 111.626 13.54C111.892 13.5267 112.152 13.52 112.406 13.52C112.672 13.5067 112.872 13.5 113.006 13.5H117.626V15H108.746ZM120.406 15V13.7C121.726 12.7267 122.826 11.8733 123.706 11.14C124.599 10.4067 125.312 9.74 125.846 9.14C126.379 8.54 126.759 7.97333 126.986 7.44C127.212 6.89333 127.326 6.32667 127.326 5.74C127.326 4.95333 127.072 4.32 126.566 3.84C126.072 3.34667 125.392 3.1 124.526 3.1C123.619 3.1 122.892 3.4 122.346 4C121.799 4.58667 121.479 5.37333 121.386 6.36L119.986 5.52C120.106 4.74667 120.352 4.06667 120.726 3.48C121.112 2.89333 121.626 2.43333 122.266 2.1C122.919 1.76667 123.692 1.6 124.586 1.6C125.266 1.6 125.872 1.7 126.406 1.9C126.952 2.1 127.419 2.38667 127.806 2.76C128.192 3.12 128.486 3.55333 128.686 4.06C128.899 4.56667 129.006 5.12667 129.006 5.74C129.006 6.56667 128.806 7.38 128.406 8.18C128.006 8.96667 127.346 9.79333 126.426 10.66C125.506 11.5267 124.259 12.4867 122.686 13.54V13.56C122.832 13.5467 123.032 13.54 123.286 13.54C123.552 13.5267 123.812 13.52 124.066 13.52C124.332 13.5067 124.532 13.5 124.666 13.5H129.286V15H120.406ZM133.246 12.6C133.633 12.6 133.946 12.72 134.186 12.96C134.426 13.2 134.546 13.5133 134.546 13.9C134.546 14.2867 134.426 14.6 134.186 14.84C133.946 15.08 133.633 15.2 133.246 15.2C132.859 15.2 132.546 15.08 132.306 14.84C132.066 14.6 131.946 14.2867 131.946 13.9C131.946 13.5133 132.066 13.2 132.306 12.96C132.546 12.72 132.859 12.6 133.246 12.6ZM154.594 15H152.894L151.494 11.34H145.514L144.114 15H142.434L147.574 1.8H149.474L154.594 15ZM146.094 9.84H150.914L148.494 3.34L146.094 9.84ZM158.497 0.4V12.46C158.497 12.9667 158.591 13.32 158.777 13.52C158.964 13.7067 159.264 13.8 159.677 13.8C159.944 13.8 160.164 13.78 160.337 13.74C160.511 13.7 160.744 13.6267 161.037 13.52L160.777 14.92C160.564 15.0133 160.331 15.08 160.077 15.12C159.824 15.1733 159.564 15.2 159.297 15.2C158.484 15.2 157.877 14.98 157.477 14.54C157.091 14.1 156.897 13.4267 156.897 12.52V0.4H158.497ZM164.61 0.4V12.46C164.61 12.9667 164.704 13.32 164.89 13.52C165.077 13.7067 165.377 13.8 165.79 13.8C166.057 13.8 166.277 13.78 166.45 13.74C166.624 13.7 166.857 13.6267 167.15 13.52L166.89 14.92C166.677 15.0133 166.444 15.08 166.19 15.12C165.937 15.1733 165.677 15.2 165.41 15.2C164.597 15.2 163.99 14.98 163.59 14.54C163.204 14.1 163.01 13.4267 163.01 12.52V0.4H164.61ZM175.317 15V5H176.617L176.837 6.64C177.117 6.02667 177.524 5.56667 178.057 5.26C178.604 4.95333 179.264 4.8 180.037 4.8C180.21 4.8 180.397 4.81333 180.597 4.84C180.81 4.86667 180.99 4.92 181.137 5L180.857 6.46C180.71 6.40667 180.55 6.36667 180.377 6.34C180.204 6.31333 179.957 6.3 179.637 6.3C179.224 6.3 178.804 6.42 178.377 6.66C177.964 6.9 177.617 7.26667 177.337 7.76C177.057 8.24 176.917 8.85333 176.917 9.6V15H175.317ZM184.281 3.08C183.921 3.08 183.628 2.97333 183.401 2.76C183.188 2.53333 183.081 2.24 183.081 1.88C183.081 1.52 183.188 1.23333 183.401 1.02C183.628 0.793333 183.921 0.68 184.281 0.68C184.641 0.68 184.928 0.793333 185.141 1.02C185.368 1.23333 185.481 1.52 185.481 1.88C185.481 2.24 185.368 2.53333 185.141 2.76C184.928 2.97333 184.641 3.08 184.281 3.08ZM185.081 5V15H183.481V5H185.081ZM197.214 3.16L197.574 4.58C197.56 4.58 197.54 4.58 197.514 4.58C197.487 4.58 197.46 4.58 197.434 4.58C196.78 4.58 196.274 4.71333 195.914 4.98C195.567 5.23333 195.394 5.64667 195.394 6.22L194.414 5.72C194.414 5.2 194.534 4.74667 194.774 4.36C195.014 3.97333 195.34 3.68 195.754 3.48C196.167 3.26667 196.62 3.16 197.114 3.16C197.127 3.16 197.14 3.16 197.154 3.16C197.18 3.16 197.2 3.16 197.214 3.16ZM194.174 13.72C195.12 13.72 195.86 13.94 196.394 14.38C196.927 14.8067 197.194 15.38 197.194 16.1C197.194 16.7533 196.974 17.32 196.534 17.8C196.107 18.28 195.527 18.6467 194.794 18.9C194.074 19.1667 193.26 19.3 192.354 19.3C190.78 19.3 189.6 19.0333 188.814 18.5C188.04 17.9667 187.654 17.3267 187.654 16.58C187.654 16.0467 187.827 15.5667 188.174 15.14C188.534 14.7267 189.134 14.4933 189.974 14.44L189.834 14.74C189.38 14.62 188.994 14.42 188.674 14.14C188.367 13.8467 188.214 13.4267 188.214 12.88C188.214 12.3333 188.414 11.8667 188.814 11.48C189.227 11.08 189.834 10.8333 190.634 10.74L191.694 11.28H191.494C190.84 11.3467 190.374 11.5133 190.094 11.78C189.827 12.0333 189.694 12.3133 189.694 12.62C189.694 12.9933 189.827 13.2733 190.094 13.46C190.374 13.6333 190.76 13.72 191.254 13.72H194.174ZM192.334 17.96C193.107 17.96 193.74 17.88 194.234 17.72C194.74 17.56 195.114 17.3533 195.354 17.1C195.594 16.8467 195.714 16.5733 195.714 16.28C195.714 15.92 195.567 15.6333 195.274 15.42C194.994 15.2067 194.48 15.1 193.734 15.1H190.654C190.227 15.1 189.867 15.2067 189.574 15.42C189.28 15.6467 189.134 15.9533 189.134 16.34C189.134 16.8333 189.414 17.2267 189.974 17.52C190.547 17.8133 191.334 17.96 192.334 17.96ZM192.194 4.8C192.994 4.8 193.7 4.94667 194.314 5.24C194.94 5.52 195.427 5.91333 195.774 6.42C196.12 6.92667 196.294 7.51333 196.294 8.18C196.294 8.83333 196.12 9.42 195.774 9.94C195.427 10.4467 194.94 10.8467 194.314 11.14C193.7 11.42 192.994 11.56 192.194 11.56C190.874 11.56 189.86 11.2467 189.154 10.62C188.447 9.98 188.094 9.16667 188.094 8.18C188.094 7.51333 188.267 6.92667 188.614 6.42C188.974 5.91333 189.46 5.52 190.074 5.24C190.687 4.94667 191.394 4.8 192.194 4.8ZM192.194 6.1C191.5 6.1 190.92 6.29333 190.454 6.68C189.987 7.05333 189.754 7.55333 189.754 8.18C189.754 8.79333 189.987 9.29333 190.454 9.68C190.92 10.0667 191.5 10.26 192.194 10.26C192.887 10.26 193.467 10.0667 193.934 9.68C194.4 9.29333 194.634 8.79333 194.634 8.18C194.634 7.55333 194.4 7.05333 193.934 6.68C193.467 6.29333 192.887 6.1 192.194 6.1ZM199.438 15V0.4H201.038V6.5C201.385 5.9 201.845 5.46667 202.418 5.2C202.991 4.93333 203.618 4.8 204.298 4.8C205.018 4.8 205.671 4.94 206.258 5.22C206.845 5.48667 207.311 5.9 207.658 6.46C208.018 7.02 208.198 7.73333 208.198 8.6V15H206.598V9.16C206.598 8.05333 206.358 7.28667 205.878 6.86C205.411 6.42 204.831 6.2 204.138 6.2C203.658 6.2 203.178 6.31333 202.698 6.54C202.218 6.76667 201.818 7.14 201.498 7.66C201.191 8.16667 201.038 8.84667 201.038 9.7V15H199.438ZM214.044 2.16V12.24C214.044 12.7333 214.184 13.1 214.464 13.34C214.744 13.58 215.104 13.7 215.544 13.7C215.931 13.7 216.264 13.6333 216.544 13.5C216.824 13.3667 217.078 13.1867 217.304 12.96L217.864 14.3C217.558 14.58 217.191 14.8 216.764 14.96C216.351 15.12 215.871 15.2 215.324 15.2C214.818 15.2 214.344 15.1133 213.904 14.94C213.464 14.7533 213.111 14.4667 212.844 14.08C212.591 13.68 212.458 13.16 212.444 12.52V2.6L214.044 2.16ZM217.684 5V6.38H210.444V5H217.684ZM223.663 15.2C222.69 15.2 221.79 14.9933 220.963 14.58C220.15 14.1667 219.523 13.58 219.083 12.82L220.443 11.84C220.736 12.4533 221.163 12.9333 221.723 13.28C222.296 13.6267 222.983 13.8 223.783 13.8C224.49 13.8 225.043 13.6667 225.443 13.4C225.843 13.12 226.043 12.76 226.043 12.32C226.043 12.04 225.95 11.7867 225.763 11.56C225.59 11.32 225.25 11.1467 224.743 11.04L222.343 10.54C221.37 10.34 220.67 10.0067 220.243 9.54C219.83 9.07333 219.623 8.49333 219.623 7.8C219.623 7.25333 219.776 6.75333 220.083 6.3C220.403 5.84667 220.85 5.48667 221.423 5.22C222.01 4.94 222.696 4.8 223.483 4.8C224.47 4.8 225.303 4.99333 225.983 5.38C226.663 5.76667 227.17 6.31333 227.503 7.02L226.163 7.9C225.936 7.31333 225.57 6.88667 225.063 6.62C224.556 6.34 224.03 6.2 223.483 6.2C223.003 6.2 222.59 6.26667 222.243 6.4C221.91 6.53333 221.65 6.72 221.463 6.96C221.29 7.18667 221.203 7.44667 221.203 7.74C221.203 8.03333 221.303 8.30667 221.503 8.56C221.703 8.8 222.076 8.97333 222.623 9.08L225.123 9.6C226.056 9.78667 226.71 10.0933 227.083 10.52C227.456 10.9467 227.643 11.4667 227.643 12.08C227.643 12.7067 227.476 13.26 227.143 13.74C226.81 14.2067 226.343 14.5667 225.743 14.82C225.143 15.0733 224.45 15.2 223.663 15.2ZM237.426 15V5H238.726L238.946 6.64C239.226 6.02667 239.633 5.56667 240.166 5.26C240.713 4.95333 241.373 4.8 242.146 4.8C242.32 4.8 242.506 4.81333 242.706 4.84C242.92 4.86667 243.1 4.92 243.246 5L242.966 6.46C242.82 6.40667 242.66 6.36667 242.486 6.34C242.313 6.31333 242.066 6.3 241.746 6.3C241.333 6.3 240.913 6.42 240.486 6.66C240.073 6.9 239.726 7.26667 239.446 7.76C239.166 8.24 239.026 8.85333 239.026 9.6V15H237.426ZM249.458 15.2C248.511 15.2 247.665 14.9933 246.918 14.58C246.185 14.1667 245.611 13.5733 245.198 12.8C244.785 12.0133 244.578 11.08 244.578 10C244.578 8.92 244.785 7.99333 245.198 7.22C245.611 6.43333 246.178 5.83333 246.898 5.42C247.618 5.00667 248.438 4.8 249.358 4.8C250.291 4.8 251.085 5 251.738 5.4C252.405 5.8 252.911 6.34667 253.258 7.04C253.605 7.72 253.778 8.48667 253.778 9.34C253.778 9.56667 253.771 9.77333 253.758 9.96C253.745 10.1467 253.725 10.3133 253.698 10.46H245.618V9.04H252.998L252.178 9.2C252.178 8.24 251.911 7.5 251.378 6.98C250.858 6.46 250.171 6.2 249.318 6.2C248.665 6.2 248.098 6.35333 247.618 6.66C247.151 6.95333 246.785 7.38667 246.518 7.96C246.265 8.52 246.138 9.2 246.138 10C246.138 10.7867 246.271 11.4667 246.538 12.04C246.805 12.6133 247.178 13.0533 247.658 13.36C248.151 13.6533 248.738 13.8 249.418 13.8C250.151 13.8 250.745 13.66 251.198 13.38C251.665 13.1 252.038 12.72 252.318 12.24L253.578 12.98C253.325 13.4333 252.998 13.8267 252.598 14.16C252.211 14.4933 251.751 14.7533 251.218 14.94C250.698 15.1133 250.111 15.2 249.458 15.2ZM260.421 15.2C259.448 15.2 258.548 14.9933 257.721 14.58C256.908 14.1667 256.281 13.58 255.841 12.82L257.201 11.84C257.494 12.4533 257.921 12.9333 258.481 13.28C259.054 13.6267 259.741 13.8 260.541 13.8C261.248 13.8 261.801 13.6667 262.201 13.4C262.601 13.12 262.801 12.76 262.801 12.32C262.801 12.04 262.708 11.7867 262.521 11.56C262.348 11.32 262.008 11.1467 261.501 11.04L259.101 10.54C258.128 10.34 257.428 10.0067 257.001 9.54C256.588 9.07333 256.381 8.49333 256.381 7.8C256.381 7.25333 256.534 6.75333 256.841 6.3C257.161 5.84667 257.608 5.48667 258.181 5.22C258.768 4.94 259.454 4.8 260.241 4.8C261.228 4.8 262.061 4.99333 262.741 5.38C263.421 5.76667 263.928 6.31333 264.261 7.02L262.921 7.9C262.694 7.31333 262.328 6.88667 261.821 6.62C261.314 6.34 260.788 6.2 260.241 6.2C259.761 6.2 259.348 6.26667 259.001 6.4C258.668 6.53333 258.408 6.72 258.221 6.96C258.048 7.18667 257.961 7.44667 257.961 7.74C257.961 8.03333 258.061 8.30667 258.261 8.56C258.461 8.8 258.834 8.97333 259.381 9.08L261.881 9.6C262.814 9.78667 263.468 10.0933 263.841 10.52C264.214 10.9467 264.401 11.4667 264.401 12.08C264.401 12.7067 264.234 13.26 263.901 13.74C263.568 14.2067 263.101 14.5667 262.501 14.82C261.901 15.0733 261.208 15.2 260.421 15.2ZM271.548 15.2C270.601 15.2 269.754 14.9933 269.008 14.58C268.274 14.1667 267.701 13.5733 267.288 12.8C266.874 12.0133 266.668 11.08 266.668 10C266.668 8.92 266.874 7.99333 267.288 7.22C267.701 6.43333 268.268 5.83333 268.988 5.42C269.708 5.00667 270.528 4.8 271.448 4.8C272.381 4.8 273.174 5 273.828 5.4C274.494 5.8 275.001 6.34667 275.348 7.04C275.694 7.72 275.868 8.48667 275.868 9.34C275.868 9.56667 275.861 9.77333 275.848 9.96C275.834 10.1467 275.814 10.3133 275.788 10.46H267.708V9.04H275.088L274.268 9.2C274.268 8.24 274.001 7.5 273.468 6.98C272.948 6.46 272.261 6.2 271.408 6.2C270.754 6.2 270.188 6.35333 269.708 6.66C269.241 6.95333 268.874 7.38667 268.608 7.96C268.354 8.52 268.228 9.2 268.228 10C268.228 10.7867 268.361 11.4667 268.628 12.04C268.894 12.6133 269.268 13.0533 269.748 13.36C270.241 13.6533 270.828 13.8 271.508 13.8C272.241 13.8 272.834 13.66 273.288 13.38C273.754 13.1 274.128 12.72 274.408 12.24L275.668 12.98C275.414 13.4333 275.088 13.8267 274.688 14.16C274.301 14.4933 273.841 14.7533 273.308 14.94C272.788 15.1133 272.201 15.2 271.548 15.2ZM278.911 15V5H280.211L280.431 6.64C280.711 6.02667 281.117 5.56667 281.651 5.26C282.197 4.95333 282.857 4.8 283.631 4.8C283.804 4.8 283.991 4.81333 284.191 4.84C284.404 4.86667 284.584 4.92 284.731 5L284.451 6.46C284.304 6.40667 284.144 6.36667 283.971 6.34C283.797 6.31333 283.551 6.3 283.231 6.3C282.817 6.3 282.397 6.42 281.971 6.66C281.557 6.9 281.211 7.26667 280.931 7.76C280.651 8.24 280.511 8.85333 280.511 9.6V15H278.911ZM293.695 5H295.375L291.215 15H289.615L285.455 5H287.275L290.435 13.38L293.695 5ZM301.645 15.2C300.699 15.2 299.852 14.9933 299.105 14.58C298.372 14.1667 297.799 13.5733 297.385 12.8C296.972 12.0133 296.765 11.08 296.765 10C296.765 8.92 296.972 7.99333 297.385 7.22C297.799 6.43333 298.365 5.83333 299.085 5.42C299.805 5.00667 300.625 4.8 301.545 4.8C302.479 4.8 303.272 5 303.925 5.4C304.592 5.8 305.099 6.34667 305.445 7.04C305.792 7.72 305.965 8.48667 305.965 9.34C305.965 9.56667 305.959 9.77333 305.945 9.96C305.932 10.1467 305.912 10.3133 305.885 10.46H297.805V9.04H305.185L304.365 9.2C304.365 8.24 304.099 7.5 303.565 6.98C303.045 6.46 302.359 6.2 301.505 6.2C300.852 6.2 300.285 6.35333 299.805 6.66C299.339 6.95333 298.972 7.38667 298.705 7.96C298.452 8.52 298.325 9.2 298.325 10C298.325 10.7867 298.459 11.4667 298.725 12.04C298.992 12.6133 299.365 13.0533 299.845 13.36C300.339 13.6533 300.925 13.8 301.605 13.8C302.339 13.8 302.932 13.66 303.385 13.38C303.852 13.1 304.225 12.72 304.505 12.24L305.765 12.98C305.512 13.4333 305.185 13.8267 304.785 14.16C304.399 14.4933 303.939 14.7533 303.405 14.94C302.885 15.1133 302.299 15.2 301.645 15.2ZM312.908 15.2C312.082 15.2 311.322 14.9933 310.628 14.58C309.935 14.1667 309.382 13.5733 308.968 12.8C308.555 12.0133 308.348 11.08 308.348 10C308.348 8.89333 308.568 7.95333 309.008 7.18C309.448 6.40667 310.028 5.82 310.748 5.42C311.468 5.00667 312.242 4.8 313.068 4.8C313.895 4.8 314.608 5.01333 315.208 5.44C315.822 5.86667 316.228 6.43333 316.428 7.14L316.228 7.28V0.4H317.828V15H316.428L316.288 12.58L316.508 12.46C316.415 13.0467 316.188 13.5467 315.828 13.96C315.482 14.36 315.048 14.6667 314.528 14.88C314.022 15.0933 313.482 15.2 312.908 15.2ZM313.068 13.8C313.708 13.8 314.262 13.64 314.728 13.32C315.208 13 315.575 12.5467 315.828 11.96C316.095 11.36 316.228 10.66 316.228 9.86C316.228 9.1 316.095 8.44667 315.828 7.9C315.575 7.35333 315.215 6.93333 314.748 6.64C314.295 6.34667 313.762 6.2 313.148 6.2C312.135 6.2 311.348 6.54667 310.788 7.24C310.228 7.93333 309.948 8.85333 309.948 10C309.948 11.1467 310.222 12.0667 310.768 12.76C311.315 13.4533 312.082 13.8 313.068 13.8ZM322.348 12.6C322.734 12.6 323.048 12.72 323.288 12.96C323.528 13.2 323.648 13.5133 323.648 13.9C323.648 14.2867 323.528 14.6 323.288 14.84C323.048 15.08 322.734 15.2 322.348 15.2C321.961 15.2 321.648 15.08 321.408 14.84C321.168 14.6 321.048 14.2867 321.048 13.9C321.048 13.5133 321.168 13.2 321.408 12.96C321.648 12.72 321.961 12.6 322.348 12.6Z" fill="white"/>
</svg>
